<?xml version="1.0" encoding="UTF-8" standalone="no"?>
<!-- Created with Inkscape (http://www.inkscape.org/) -->

<svg
   xmlns:dc="http://purl.org/dc/elements/1.1/"
   xmlns:cc="http://creativecommons.org/ns#"
   xmlns:rdf="http://www.w3.org/1999/02/22-rdf-syntax-ns#"
   xmlns:svg="http://www.w3.org/2000/svg"
   xmlns="http://www.w3.org/2000/svg"
   xmlns:sodipodi="http://sodipodi.sourceforge.net/DTD/sodipodi-0.dtd"
   xmlns:inkscape="http://www.inkscape.org/namespaces/inkscape"
   width="9.0118256mm"
   height="10.718845mm"
   viewBox="0 0 31.931666 37.98016"
   id="svg2"
   version="1.1"
   inkscape:version="0.91 r13725"
   sodipodi:docname="sagadat.svg">
  <defs
     id="defs4" />
  <sodipodi:namedview
     id="base"
     pagecolor="#ffffff"
     bordercolor="#666666"
     borderopacity="1.0"
     inkscape:pageopacity="0.0"
     inkscape:pageshadow="2"
     inkscape:zoom="7.9195959"
     inkscape:cx="24.835649"
     inkscape:cy="26.628912"
     inkscape:document-units="px"
     inkscape:current-layer="layer1"
     showgrid="false"
     fit-margin-top="0"
     fit-margin-left="0"
     fit-margin-right="0"
     fit-margin-bottom="0" />
  <metadata
     id="metadata7">
    <rdf:RDF>
      <cc:Work
         rdf:about="">
        <dc:format>image/svg+xml</dc:format>
        <dc:type
           rdf:resource="http://purl.org/dc/dcmitype/StillImage" />
        <dc:title></dc:title>
      </cc:Work>
    </rdf:RDF>
  </metadata>
  <g
     inkscape:label="Layer 1"
     inkscape:groupmode="layer"
     id="layer1"
     transform="translate(813.66203,-530.63111)">
    <g
       id="g4455"
       style="fill:#0a7969;fill-opacity:1">
      <path
         sodipodi:nodetypes="ccc"
         inkscape:connector-curvature="0"
         id="path3347-62-2"
         d="m -798.97018,544.32005 c -9.93148,-11.36654 -19.6986,13.21078 -0.78431,24.29122 -26.73593,-13.68087 -8.31032,-39.04556 0.78431,-24.29122 z"
         style="fill:#0a7969;fill-opacity:1;fill-rule:evenodd;stroke:none;stroke-width:0.60000002;stroke-linecap:butt;stroke-linejoin:miter;stroke-miterlimit:4;stroke-dasharray:none;stroke-opacity:1" />
      <path
         sodipodi:nodetypes="ccccccc"
         inkscape:connector-curvature="0"
         id="path3349-9-6"
         d="m -799.14536,545.52499 c -0.89542,1.67943 -2.82092,1.97223 -5.11674,1.7665 -1.96723,0.0159 -2.79514,1.17102 -2.92386,3.02537 -0.12165,11.63763 3.78325,12.38597 6.53806,15.49238 -3.73192,-4.0913 -5.54568,-8.86091 -5.29303,-15.5419 0.0219,-1.18741 0.63504,-1.61913 1.84126,-1.67636 2.28942,-0.33365 4.66445,-0.57493 4.95431,-3.06599 z"
         style="fill:#0a7969;fill-opacity:1;fill-rule:evenodd;stroke:none;stroke-width:0.60000002;stroke-linecap:butt;stroke-linejoin:miter;stroke-miterlimit:4;stroke-dasharray:none;stroke-opacity:1" />
      <path
         sodipodi:nodetypes="ccc"
         inkscape:connector-curvature="0"
         id="path4151-1-1"
         d="m -798.77987,547.29149 c -2.63959,9.23857 -6.61929,4.26395 -6.61929,4.26395 1.94978,4.6377 6.53046,0.70548 6.61929,-4.26395 z"
         style="fill:#0a7969;fill-opacity:1;fill-rule:evenodd;stroke:none;stroke-width:0.60000002;stroke-linecap:butt;stroke-linejoin:miter;stroke-miterlimit:4;stroke-dasharray:none;stroke-opacity:1" />
      <path
         sodipodi:nodetypes="ccccc"
         inkscape:connector-curvature="0"
         id="path4153-2-8"
         d="m -803.8154,554.43869 c 2.18131,0.0224 2.34885,1.57558 2.30456,2.32487 -0.48263,8.23452 4.86158,10.28075 8.57868,4.90356 -2.56963,5.57463 -8.02508,4.05271 -9.08217,-0.49275 -0.663,-2.5966 0.3089,-5.37268 -1.80107,-6.73568 z"
         style="fill:#0a7969;fill-opacity:1;fill-rule:evenodd;stroke:none;stroke-width:0.60000002;stroke-linecap:butt;stroke-linejoin:miter;stroke-miterlimit:4;stroke-dasharray:none;stroke-opacity:1" />
      <path
         sodipodi:nodetypes="ccc"
         inkscape:connector-curvature="0"
         id="path4197-7-7"
         d="m -798.10909,552.76088 c -2.79636,3.8668 0.26337,6.83723 3.30222,3.21608 -3.87769,2.28077 -4.2442,-0.0699 -3.30222,-3.21608 z"
         style="fill:#0a7969;fill-opacity:1;fill-rule:evenodd;stroke:none;stroke-width:0.60000002;stroke-linecap:butt;stroke-linejoin:miter;stroke-miterlimit:4;stroke-dasharray:none;stroke-opacity:1" />
      <path
         sodipodi:nodetypes="ccccc"
         inkscape:connector-curvature="0"
         id="path4199-0-9"
         d="m -794.72073,557.75729 c -0.75135,0.22215 -1.24181,0.82217 -0.89016,2.64178 0.47972,2.26711 -0.70379,2.41676 -1.37237,3.03321 0.35649,-0.84444 1.18854,-1.57522 0.6545,-2.91836 -0.77243,-2.036 0.27815,-2.76969 1.60803,-2.75663 z"
         style="fill:#0a7969;fill-opacity:1;fill-rule:evenodd;stroke:none;stroke-width:0.60000002;stroke-linecap:butt;stroke-linejoin:miter;stroke-miterlimit:4;stroke-dasharray:none;stroke-opacity:1" />
      <path
         sodipodi:nodetypes="ccccc"
         inkscape:connector-curvature="0"
         id="path4201-9-2"
         d="m -793.4915,552.63413 c -2.22879,-2.90522 -5.45742,-1.07531 -2.83726,1.5625 2.67046,2.36837 3.60141,4.80645 2.18234,7.8679 2.33434,-2.99782 1.02681,-5.57768 -1.26347,-8.12634 -2.39345,-2.75381 0.31474,-2.96268 1.91839,-1.30406 z"
         style="fill:#0a7969;fill-opacity:1;fill-rule:evenodd;stroke:none;stroke-width:0.60000002;stroke-linecap:butt;stroke-linejoin:miter;stroke-miterlimit:4;stroke-dasharray:none;stroke-opacity:1" />
      <path
         sodipodi:nodetypes="ccccc"
         inkscape:connector-curvature="0"
         id="path4203-3-0"
         d="m -789.12506,546.61129 c -2.99186,1.33479 -1.38286,3.73149 -1.1269,8.03045 0.14798,7.83389 -2.14266,8.92833 -2.84264,10.18303 0.48238,-2.61772 2.71841,-1.61724 0.69035,-13.71603 -0.94437,-3.766 1.24578,-6.36767 3.27919,-4.49745 z"
         style="fill:#0a7969;fill-opacity:1;fill-rule:evenodd;stroke:none;stroke-width:0.60000002;stroke-linecap:butt;stroke-linejoin:miter;stroke-miterlimit:4;stroke-dasharray:none;stroke-opacity:1" />
      <path
         sodipodi:nodetypes="cccc"
         inkscape:connector-curvature="0"
         id="path4207-6-2"
         d="m -789.60222,544.2458 c -1.18043,-2.1425 -2.16301,-2.23604 -3.20812,-1.09644 -2.22661,2.00349 -4.13305,-0.23529 -5.92893,-3.93909 2.58909,6.88728 4.05873,7.95814 9.13705,5.03553 z"
         style="fill:#0a7969;fill-opacity:1;fill-rule:evenodd;stroke:none;stroke-width:0.60000002;stroke-linecap:butt;stroke-linejoin:miter;stroke-miterlimit:4;stroke-dasharray:none;stroke-opacity:1" />
      <path
         sodipodi:nodetypes="ccccccccccc"
         inkscape:connector-curvature="0"
         id="path4209-0-3"
         d="m -794.63774,568.2864 c 18.33908,-8.01421 14.41466,-29.88 4.96824,-34.6236 l -0.62307,-2.45252 c -2.77008,-0.88582 -5.08094,-0.73839 -6.98477,0.32487 -0.28782,1.3888 5.08064,1.06349 5.57823,0.63497 l 0.14766,2.00462 c -1.39446,0.49096 -3.43237,1.20513 -6.29441,-0.26948 -2.75376,2.68377 -3.19919,4.52683 -0.89341,5.34562 -0.85404,-3.38722 5.47098,-3.18056 6.33502,0.20305 0.88139,-1.83703 1.76279,-1.32821 2.64417,-0.43804 8.16979,9.16269 3.09672,24.2064 -4.87766,29.27051 z"
         style="fill:#0a7969;fill-opacity:1;fill-rule:evenodd;stroke:none;stroke-width:0.60000002;stroke-linecap:butt;stroke-linejoin:miter;stroke-miterlimit:4;stroke-dasharray:none;stroke-opacity:1" />
    </g>
  </g>
</svg>
